# Exported from ProBuilder
# http://www.procore3d.com/probuilder
# 11/05/2018 13:03:07

mtllib ./Block_L.mtl
o Block L

g Block L
v 47.5 27.75 -121.75
v 43.5 27.75 -121.75
v 47.5 31.75 -121.75
v 43.5 31.75 -121.75
v 43.5 27.75 -125.75
v 43.5 27.75 -129.75
v 43.5 31.75 -125.75
v 43.5 31.75 -129.75
v 43.5 27.75 -129.75
v 47.5 27.75 -129.75
v 43.5 31.75 -129.75
v 47.5 31.75 -129.75
v 47.5 27.75 -129.75
v 47.5 27.75 -125.75
v 47.5 31.75 -129.75
v 47.5 31.75 -125.75
v 47.5 31.75 -125.75
v 43.5 31.75 -125.75
v 47.5 31.75 -129.75
v 43.5 31.75 -129.75
v 47.5 27.75 -129.75
v 43.5 27.75 -129.75
v 47.5 27.75 -125.75
v 43.5 27.75 -125.75
v 47.5 27.75 -125.75
v 43.5 27.75 -125.75
v 47.5 27.75 -121.75
v 43.5 27.75 -121.75
v 47.5 31.75 -125.75
v 47.5 27.75 -125.75
v 47.5 31.75 -121.75
v 47.5 27.75 -121.75
v 39.5 27.75 -125.75
v 39.5 31.75 -125.75
v 39.5 27.75 -121.75
v 39.5 31.75 -121.75
v 43.5 31.75 -125.75
v 47.5 31.75 -125.75
v 43.5 31.75 -121.75
v 47.5 31.75 -121.75
v 43.5 27.75 -125.75
v 43.5 31.75 -125.75
v 39.5 27.75 -125.75
v 39.5 31.75 -125.75
v 43.5 27.75 -121.75
v 43.5 27.75 -125.75
v 39.5 27.75 -121.75
v 39.5 27.75 -125.75
v 43.5 31.75 -125.75
v 43.5 31.75 -121.75
v 39.5 31.75 -125.75
v 39.5 31.75 -121.75
v 43.5 31.75 -121.75
v 43.5 27.75 -121.75
v 39.5 31.75 -121.75
v 39.5 27.75 -121.75

vn 0 0 1
vn 0 0 1
vn 0 0 1
vn 0 0 1
vn -1 0 0
vn -1 0 0
vn -1 0 0
vn -1 0 0
vn 0 0 -1
vn 0 0 -1
vn 0 0 -1
vn 0 0 -1
vn 1 0 0
vn 1 0 0
vn 1 0 0
vn 1 0 0
vn 0 1 0
vn 0 1 0
vn 0 1 0
vn 0 1 0
vn 0 -1 0
vn 0 -1 0
vn 0 -1 0
vn 0 -1 0
vn 0 -1 0
vn 0 -1 0
vn 0 -1 0
vn 0 -1 0
vn 1 0 0
vn 1 0 0
vn 1 0 0
vn 1 0 0
vn -1 0 0
vn -1 0 0
vn -1 0 0
vn -1 0 0
vn 0 1 0
vn 0 1 0
vn 0 1 0
vn 0 1 0
vn 0 0 -1
vn 0 0 -1
vn 0 0 -1
vn 0 0 -1
vn 0 -1 0
vn 0 -1 0
vn 0 -1 0
vn 0 -1 0
vn 0 1 0
vn 0 1 0
vn 0 1 0
vn 0 1 0
vn 0 0 1
vn 0 0 1
vn 0 0 1
vn 0 0 1

vt 0 0
vt -4 0
vt 0 4
vt -4 4
vt 0 0
vt -4 0
vt 0 4
vt -4 4
vt 4 0
vt 0 0
vt 4 4
vt 0 4
vt 4 0
vt 0 0
vt 4 4
vt 0 4
vt 0 0
vt 4 0
vt 0 -4
vt 4 -4
vt 0 -4
vt -4 -4
vt 0 0
vt -4 0
vt 0 0
vt -4 0
vt 0 4
vt -4 4
vt 0 4
vt 0 0
vt -4 4
vt -4 0
vt 0 0
vt 0 4
vt 4 0
vt 4 4
vt 4 0
vt 0 0
vt 4 4
vt 0 4
vt 4 0
vt 4 4
vt 8 0
vt 8 4
vt -4 4
vt -4 0
vt -8 4
vt -8 0
vt 4 0
vt 4 4
vt 8 0
vt 8 4
vt -4 4
vt -4 0
vt -8 4
vt -8 0

g Block L_0
usemtl Fill01-C_Local
f 3/3/3 4/4/4 2/2/2 1/1/1
f 7/7/7 8/8/8 6/6/6 5/5/5
f 11/11/11 12/12/12 10/10/10 9/9/9
f 15/15/15 16/16/16 14/14/14 13/13/13
f 23/23/23 24/24/24 22/22/22 21/21/21
f 27/27/27 28/28/28 26/26/26 25/25/25
f 31/31/31 32/32/32 30/30/30 29/29/29
f 35/35/35 36/36/36 34/34/34 33/33/33
f 43/43/43 44/44/44 42/42/42 41/41/41
f 47/47/47 48/48/48 46/46/46 45/45/45
f 55/55/55 56/56/56 54/54/54 53/53/53

g Block L_1
usemtl Tile01-A
f 19/19/19 20/20/20 18/18/18 17/17/17
f 39/39/39 40/40/40 38/38/38 37/37/37
f 51/51/51 52/52/52 50/50/50 49/49/49

