# Exported from ProBuilder
# http://www.procore3d.com/probuilder
# 11/05/2018 13:03:07

mtllib ./Block_2x1.mtl
o Block 2x1

g Block 2x1
v 39.5 25 -121.75
v 35.5 25 -121.75
v 39.5 29 -121.75
v 35.5 29 -121.75
v 35.5 25 -121.75
v 35.5 25 -129.75
v 35.5 29 -121.75
v 35.5 29 -129.75
v 35.5 25 -129.75
v 39.5 25 -129.75
v 35.5 29 -129.75
v 39.5 29 -129.75
v 39.5 25 -129.75
v 39.5 25 -121.75
v 39.5 29 -129.75
v 39.5 29 -121.75
v 39.5 29 -121.75
v 35.5 29 -121.75
v 39.5 29 -129.75
v 35.5 29 -129.75
v 39.5 25 -129.75
v 35.5 25 -129.75
v 39.5 25 -121.75
v 35.5 25 -121.75

vn 0 0 1
vn 0 0 1
vn 0 0 1
vn 0 0 1
vn -1 0 0
vn -1 0 0
vn -1 0 0
vn -1 0 0
vn 0 0 -1
vn 0 0 -1
vn 0 0 -1
vn 0 0 -1
vn 1 0 0
vn 1 0 0
vn 1 0 0
vn 1 0 0
vn 0 1 0
vn 0 1 0
vn 0 1 0
vn 0 1 0
vn 0 -1 0
vn 0 -1 0
vn 0 -1 0
vn 0 -1 0

vt 0 0
vt -4 0
vt 0 4
vt -4 4
vt 4 0
vt -4 0
vt 4 4
vt -4 4
vt 4 0
vt 0 0
vt 4 4
vt 0 4
vt 4 0
vt -4 0
vt 4 4
vt -4 4
vt 0 4
vt 4 4
vt 0 -4
vt 4 -4
vt 0 -4
vt -4 -4
vt 0 4
vt -4 4

g Block 2x1_0
usemtl Fill01-C_Local
f 3/3/3 4/4/4 2/2/2 1/1/1
f 7/7/7 8/8/8 6/6/6 5/5/5
f 11/11/11 12/12/12 10/10/10 9/9/9
f 15/15/15 16/16/16 14/14/14 13/13/13
f 23/23/23 24/24/24 22/22/22 21/21/21

g Block 2x1_1
usemtl Tile01-A
f 19/19/19 20/20/20 18/18/18 17/17/17

