# Exported from ProBuilder
# http://www.procore3d.com/probuilder
# 11/02/2018 15:39:01

mtllib ./Intersection_4-way.mtl
o Intersection 4-way

g Intersection 4-way
v 3 1 -7.629395E-06
v 3 0 -7.629395E-06
v 2.999992 1 -3.000011
v 2.999992 0 -3.000011
v 2.999966 1 -13.00001
v 2.999966 0 -13.00001
v 2.999958 1 -16.00001
v 2.999958 0 -16.00001
v 2.999992 1 -3.000011
v 2.999992 0 -3.000011
v -7.629395E-06 1 -3.000004
v -7.629395E-06 0 -3.000004
v 2.999966 0 -13.00001
v 2.999966 1 -13.00001
v -3.433228E-05 0 -13
v -3.433228E-05 1 -13
v 3.999994 1 -4.000006
v 4 1 -2.861023E-06
v 2.999992 1 -3.000011
v 3 1 -7.629395E-06
v 4 0 -2.861023E-06
v 3.999994 0 -4.000006
v 3 0 -7.629395E-06
v 2.999992 0 -3.000011
v -1.144409E-05 1 -4.000004
v 3.999994 1 -4.000006
v -7.629395E-06 1 -3.000004
v 2.999992 1 -3.000011
v 3.999994 0 -4.000006
v -1.144409E-05 0 -4.000004
v 2.999992 0 -3.000011
v -7.629395E-06 0 -3.000004
v -3.242493E-05 0 -12
v 3.999985 0 -12.00001
v -3.433228E-05 0 -13
v 2.999966 0 -13.00001
v 3.999979 1 -16.00001
v 3.999985 1 -12.00001
v 2.999958 1 -16.00001
v 2.999966 1 -13.00001
v 3.999985 0 -12.00001
v 3.999979 0 -16.00001
v 2.999966 0 -13.00001
v 2.999958 0 -16.00001
v 3.999985 1 -12.00001
v -3.242493E-05 1 -12
v 2.999966 1 -13.00001
v -3.433228E-05 1 -13
v 3.999985 1 -12.00001
v 3.999994 1 -4.000006
v -3.242493E-05 1 -12
v -1.144409E-05 1 -4.000004
v -3.242493E-05 0 -12
v 3.999985 0 -12.00001
v -1.144409E-05 0 -4.000004
v 3.999994 0 -4.000006
v -3.242493E-05 0 -12
v -1.144409E-05 0 -4.000004
v -3.242493E-05 1 -12
v -1.144409E-05 1 -4.000004
v -3.433228E-05 0 -13
v -3.242493E-05 0 -12
v -3.433228E-05 1 -13
v -3.242493E-05 1 -12
v -7.629395E-06 1 -3.000004
v -1.144409E-05 1 -4.000004
v -7.629395E-06 0 -3.000004
v -1.144409E-05 0 -4.000004
v 4 1 -2.861023E-06
v 3 1 -7.629395E-06
v 4 0 -2.861023E-06
v 3 0 -7.629395E-06
v 3.999979 0 -16.00001
v 2.999958 0 -16.00001
v 3.999979 1 -16.00001
v 2.999958 1 -16.00001
v 3.999979 1 -16.00001
v 12 1 -16
v 3.999985 1 -12.00001
v 12 1 -12
v 3.999985 1 -12.00001
v 12 1 -12
v 3.999994 1 -4.000006
v 12 1 -3.999996
v 3.999994 1 -4.000006
v 12 1 -3.999996
v 4 1 -2.861023E-06
v 12 1 3.814697E-06
v 4 0 -2.861023E-06
v 3.999994 0 -4.000006
v 12 0 3.814697E-06
v 12 0 -3.999996
v 12 0 -16
v 12 0 -12
v 3.999979 0 -16.00001
v 3.999985 0 -12.00001
v 12 0 -3.999996
v 3.999994 0 -4.000006
v 12 0 -12
v 3.999985 0 -12.00001
v 12 0 -16
v 3.999979 0 -16.00001
v 12 1 -16
v 3.999979 1 -16.00001
v 4 0 -2.861023E-06
v 12 0 3.814697E-06
v 4 1 -2.861023E-06
v 12 1 3.814697E-06
v 13 1 -16
v 13 0 -16
v 13 1 -13
v 13 0 -13
v 13 1 -2.999996
v 13 0 -2.999996
v 13 1 3.814697E-06
v 13 0 3.814697E-06
v 13 1 -13
v 13 0 -13
v 16 1 -13
v 16 0 -13
v 13 0 -2.999996
v 13 1 -2.999996
v 16 0 -2.999996
v 16 1 -2.999996
v 12 1 -12
v 12 1 -16
v 13 1 -13
v 13 1 -16
v 12 0 -16
v 12 0 -12
v 13 0 -16
v 13 0 -13
v 16 1 -12
v 12 1 -12
v 16 1 -13
v 13 1 -13
v 12 0 -12
v 16 0 -12
v 13 0 -13
v 16 0 -13
v 16 0 -3.999996
v 12 0 -3.999996
v 16 0 -2.999996
v 13 0 -2.999996
v 12 1 3.814697E-06
v 12 1 -3.999996
v 13 1 3.814697E-06
v 13 1 -2.999996
v 12 0 -3.999996
v 12 0 3.814697E-06
v 13 0 -2.999996
v 13 0 3.814697E-06
v 12 1 -3.999996
v 16 1 -3.999996
v 13 1 -2.999996
v 16 1 -2.999996
v 12 1 -3.999996
v 12 1 -12
v 16 1 -3.999996
v 16 1 -12
v 16 0 -3.999996
v 12 0 -3.999996
v 16 0 -12
v 12 0 -12
v 16 0 -3.999996
v 16 0 -12
v 16 1 -3.999996
v 16 1 -12
v 16 0 -2.999996
v 16 0 -3.999996
v 16 1 -2.999996
v 16 1 -3.999996
v 16 1 -13
v 16 1 -12
v 16 0 -13
v 16 0 -12
v 12 1 -16
v 13 1 -16
v 12 0 -16
v 13 0 -16
v 12 0 3.814697E-06
v 13 0 3.814697E-06
v 12 1 3.814697E-06
v 13 1 3.814697E-06

vn -0.9999999 0 2.543128E-06
vn -0.9999999 0 2.543128E-06
vn -0.9999999 0 2.543128E-06
vn -0.9999999 0 2.543128E-06
vn -1 0 2.543132E-06
vn -1 0 2.543132E-06
vn -1 0 2.543132E-06
vn -1 0 2.543132E-06
vn 2.543132E-06 0 1
vn 2.543132E-06 0 1
vn 2.543132E-06 0 1
vn 2.543132E-06 0 1
vn -2.543132E-06 0 -1
vn -2.543132E-06 0 -1
vn -2.543132E-06 0 -1
vn -2.543132E-06 0 -1
vn 0 1 0
vn 0 1 0
vn 0 1 0
vn 0 1 0
vn 0 -1 0
vn 0 -1 0
vn 0 -0.9999999 0
vn 0 -1 0
vn 0 1 0
vn 0 1 0
vn 0 1 0
vn 0 1 0
vn 0 -1 0
vn 0 -1 0
vn 0 -1 0
vn 0 -1 0
vn 0 -1 0
vn 0 -1 0
vn 0 -1 0
vn 0 -1 0
vn 0 1 0
vn 0 1 0
vn 0 1 0
vn 0 1 0
vn 0 -1 0
vn 0 -1 0
vn 0 -1 0
vn 0 -1 0
vn 0 1 0
vn 0 1 0
vn 0 1 0
vn 0 1 0
vn 0 1 0
vn 0 1 0
vn 0 1 0
vn 0 1 0
vn 0 -1 0
vn 0 -1 0
vn 0 -1 0
vn 0 -1 0
vn -1 0 2.622604E-06
vn -1 0 2.622604E-06
vn -1 0 2.622604E-06
vn -1 0 2.622604E-06
vn -1 0 1.907349E-06
vn -1 0 1.907349E-06
vn -1 0 1.907349E-06
vn -1 0 1.907349E-06
vn -1 0 3.814697E-06
vn -1 0 3.814697E-06
vn -1 0 3.814697E-06
vn -1 0 3.814697E-06
vn -4.768372E-06 0 1
vn -4.768372E-06 0 1
vn -4.768372E-06 0 1
vn -4.768372E-06 0 1
vn 5.721926E-06 0 -1
vn 5.721926E-06 0 -1
vn 5.721926E-06 0 -1
vn 5.721926E-06 0 -1
vn 0 1 0
vn 0 1 0
vn 0 1 0
vn 0 1 0
vn 0 1 0
vn 0 1 0
vn 0 1 0
vn 0 1 0
vn 0 1 0
vn 0 1 0
vn 0 1 0
vn 0 1 0
vn 0 -1 0
vn 0 -1 0
vn 0 -1 0
vn 0 -1 0
vn 0 -1 0
vn 0 -1 0
vn 0 -1 0
vn 0 -1 0
vn 0 -1 0
vn 0 -1 0
vn 0 -1 0
vn 0 -1 0
vn 7.152539E-07 0 -1
vn 7.152539E-07 0 -1
vn 7.152539E-07 0 -1
vn 7.152539E-07 0 -1
vn -8.34465E-07 0 1
vn -8.34465E-07 0 1
vn -8.34465E-07 0 1
vn -8.34465E-07 0 1
vn 0.9999999 0 0
vn 0.9999999 0 0
vn 0.9999999 0 0
vn 0.9999999 0 0
vn 1 0 0
vn 1 0 0
vn 1 0 0
vn 1 0 0
vn 0 0 -1
vn 0 0 -1
vn 0 0 -1
vn 0 0 -1
vn 0 0 1
vn 0 0 1
vn 0 0 1
vn 0 0 1
vn 0 1 0
vn 0 1 0
vn 0 1 0
vn 0 1 0
vn 0 -1 0
vn 0 -1 0
vn 0 -0.9999999 0
vn 0 -1 0
vn 0 1 0
vn 0 1 0
vn 0 1 0
vn 0 1 0
vn 0 -1 0
vn 0 -1 0
vn 0 -1 0
vn 0 -1 0
vn 0 -1 0
vn 0 -1 0
vn 0 -1 0
vn 0 -1 0
vn 0 1 0
vn 0 1 0
vn 0 1 0
vn 0 1 0
vn 0 -1 0
vn 0 -1 0
vn 0 -1 0
vn 0 -1 0
vn 0 1 0
vn 0 1 0
vn 0 1 0
vn 0 1 0
vn 0 1 0
vn 0 1 0
vn 0 1 0
vn 0 1 0
vn 0 -1 0
vn 0 -1 0
vn 0 -1 0
vn 0 -1 0
vn 1 0 0
vn 1 0 0
vn 1 0 0
vn 1 0 0
vn 1 0 0
vn 1 0 0
vn 1 0 0
vn 1 0 0
vn 1 0 0
vn 1 0 0
vn 1 0 0
vn 1 0 0
vn 0 0 -1
vn 0 0 -1
vn 0 0 -1
vn 0 0 -1
vn 0 0 1
vn 0 0 1
vn 0 0 1
vn 0 0 1

vt 0 0.9999962
vt 0 -3.814697E-06
vt -3.000004 0.9999962
vt -3.000004 -3.814697E-06
vt -13 1
vt -13 0
vt -16 1
vt -16 0
vt 3 1
vt 3 0
vt 0 1
vt 0 0
vt -3 0
vt -3 1
vt 0 0
vt 0 1
vt 4 4.000004
vt 4 0
vt 3 3.000004
vt 3 0
vt -4 0
vt -4 4.000004
vt -3 0
vt -3 3.000004
vt 0 4.000004
vt 4 4.000004
vt 0 3.000004
vt 3 3.000004
vt -4 4.000004
vt 0 4.000004
vt -3 3.000004
vt 0 3.000004
vt 0 12
vt -4 12
vt 0 13
vt -3 13
vt 4 16
vt 4 12
vt 3 16
vt 3 13
vt -4 12
vt -4 16
vt -3 13
vt -3 16
vt 4 12
vt 0 12
vt 3 13
vt 0 13
vt 4 12
vt 4 4.000004
vt 0 12
vt 0 4.000004
vt 0 12
vt -4 12
vt 0 4.000004
vt -4 4.000004
vt -12 0
vt -4.000004 0
vt -12 1
vt -4.000004 1
vt -13 0
vt -12 0
vt -13 1
vt -12 1
vt -3.000004 1
vt -4.000004 1
vt -3.000004 0
vt -4.000004 0
vt 4 1
vt 3 1
vt 4 0
vt 3 0
vt -4 0
vt -3 0
vt -4 1
vt -3 1
vt 12 3.814697E-06
vt 4 0
vt 12 4.000004
vt 4 4.000004
vt 12 4.000004
vt 4 4.000004
vt 12 12
vt 4 12
vt 12 12
vt 4 12
vt 12 16
vt 4 16
vt -12 16
vt -12 12
vt -4 16
vt -4 12
vt 4 0
vt 4 4.000004
vt -4 3.814697E-06
vt -4 4.000004
vt -4 12
vt -12 12
vt -4 4.000004
vt -12 4.000004
vt -4 0
vt 4 0
vt -4 1
vt 4 1
vt -12 0
vt -4 0
vt -12 1
vt -4 1
vt 0 0.9999962
vt 0 -3.814697E-06
vt -3.000004 0.9999962
vt -3.000004 -3.814697E-06
vt -13 1
vt -13 0
vt -16 1
vt -16 0
vt 3 1
vt 3 0
vt 0 1
vt 0 0
vt -3 0
vt -3 1
vt 0 0
vt 0 1
vt 4 4.000004
vt 4 0
vt 3 3.000004
vt 3 0
vt -4 0
vt -4 4.000004
vt -3 0
vt -3 3.000004
vt 0 4.000004
vt 4 4.000004
vt 0 3.000004
vt 3 3.000004
vt -4 4.000004
vt 0 4.000004
vt -3 3.000004
vt 0 3.000004
vt 0 12
vt -4 12
vt 0 13
vt -3 13
vt 4 16
vt 4 12
vt 3 16
vt 3 13
vt -4 12
vt -4 16
vt -3 13
vt -3 16
vt 4 12
vt 0 12
vt 3 13
vt 0 13
vt 4 12
vt 4 4.000004
vt 0 12
vt 0 4.000004
vt 0 12
vt -4 12
vt 0 4.000004
vt -4 4.000004
vt -12 0
vt -4.000004 0
vt -12 1
vt -4.000004 1
vt -13 0
vt -12 0
vt -13 1
vt -12 1
vt -3.000004 1
vt -4.000004 1
vt -3.000004 0
vt -4.000004 0
vt 4 1
vt 3 1
vt 4 0
vt 3 0
vt -4 0
vt -3 0
vt -4 1
vt -3 1

g Intersection 4-way_0
usemtl Edge_C
f 3/3/3 4/4/4 2/2/2 1/1/1
f 7/7/7 8/8/8 6/6/6 5/5/5
f 11/11/11 12/12/12 10/10/10 9/9/9
f 15/15/15 16/16/16 14/14/14 13/13/13
f 19/19/19 20/20/20 18/18/18 17/17/17
f 23/23/23 24/24/24 22/22/22 21/21/21
f 27/27/27 28/28/28 26/26/26 25/25/25
f 31/31/31 32/32/32 30/30/30 29/29/29
f 35/35/35 36/36/36 34/34/34 33/33/33
f 39/39/39 40/40/40 38/38/38 37/37/37
f 43/43/43 44/44/44 42/42/42 41/41/41
f 47/47/47 48/48/48 46/46/46 45/45/45
f 64/64/64 63/63/63 61/61/61 62/62/62
f 68/68/68 67/67/67 65/65/65 66/66/66
f 72/72/72 71/71/71 69/69/69 70/70/70
f 76/76/76 75/75/75 73/73/73 74/74/74
f 111/111/111 112/112/112 110/110/110 109/109/109
f 115/115/115 116/116/116 114/114/114 113/113/113
f 119/119/119 120/120/120 118/118/118 117/117/117
f 123/123/123 124/124/124 122/122/122 121/121/121
f 127/127/127 128/128/128 126/126/126 125/125/125
f 131/131/131 132/132/132 130/130/130 129/129/129
f 135/135/135 136/136/136 134/134/134 133/133/133
f 139/139/139 140/140/140 138/138/138 137/137/137
f 143/143/143 144/144/144 142/142/142 141/141/141
f 147/147/147 148/148/148 146/146/146 145/145/145
f 151/151/151 152/152/152 150/150/150 149/149/149
f 155/155/155 156/156/156 154/154/154 153/153/153
f 172/172/172 171/171/171 169/169/169 170/170/170
f 176/176/176 175/175/175 173/173/173 174/174/174
f 180/180/180 179/179/179 177/177/177 178/178/178
f 184/184/184 183/183/183 181/181/181 182/182/182

g Intersection 4-way_1
usemtl Tile01-A
f 51/51/51 52/52/52 50/50/50 49/49/49
f 79/79/79 80/80/80 78/78/78 77/77/77
f 83/83/83 84/84/84 82/82/82 81/81/81
f 87/87/87 88/88/88 86/86/86 85/85/85
f 159/159/159 160/160/160 158/158/158 157/157/157

g Intersection 4-way_2
usemtl Fill01-D_Local
f 56/56/56 55/55/55 53/53/53 54/54/54
f 60/60/60 59/59/59 57/57/57 58/58/58
f 92/92/92 91/91/91 89/89/89 90/90/90
f 96/96/96 95/95/95 93/93/93 94/94/94
f 100/100/100 99/99/99 97/97/97 98/98/98
f 104/104/104 103/103/103 101/101/101 102/102/102
f 108/108/108 107/107/107 105/105/105 106/106/106
f 164/164/164 163/163/163 161/161/161 162/162/162
f 168/168/168 167/167/167 165/165/165 166/166/166

