# Exported from ProBuilder
# http://www.procore3d.com/probuilder
# 11/02/2018 15:39:02

mtllib ./Turn.mtl
o Turn

g Turn
v 4.999994 0 0.9999989
v -4.000006 0 0.9999948
v 4.999994 1 0.9999989
v -4.000006 1 0.9999948
v -4.999998 0 -9.000001
v -4.999992 0 -12
v -4.999998 1 -9.000001
v -4.999992 1 -12
v 5.000008 0 -12
v 5 0 -7.999999
v 5.000008 1 -12
v 5 1 -7.999999
v 5 1 -7.999999
v 5 0 -7.999999
v 4.999994 1 0.9999989
v 4.999994 0 0.9999989
v -4.999998 0 -9.000001
v -4.999998 1 -9.000001
v -7.999993 0 -9.000003
v -7.999993 1 -9.000003
v -4.000006 1 0.9999948
v -4.000006 0 0.9999948
v -7.999998 1 0.9999969
v -7.999998 0 0.9999969
v 3.999995 0 -1.430511E-06
v -4.000006 0 -5.245209E-06
v 4.999994 0 0.9999989
v -4.000006 0 0.9999948
v 4.000008 0 -12
v 4 0 -7.999999
v 5.000008 0 -12
v 5 0 -7.999999
v -7.999998 1 -3.099442E-06
v -4.000006 1 -5.245209E-06
v -7.999998 1 0.9999969
v -4.000006 1 0.9999948
v -4.000006 1 -5.245209E-06
v 3.999995 1 -1.430511E-06
v -4.000006 1 0.9999948
v 4.999994 1 0.9999989
v -4.000006 0 -5.245209E-06
v -7.999998 0 -3.099442E-06
v -4.000006 0 0.9999948
v -7.999998 0 0.9999969
v 4 1 -7.999999
v 4.000008 1 -12
v 5 1 -7.999999
v 5.000008 1 -12
v 3.999995 1 -1.430511E-06
v 4 1 -7.999999
v 4.999994 1 0.9999989
v 5 1 -7.999999
v 4 0 -7.999999
v 3.999995 0 -1.430511E-06
v 5 0 -7.999999
v 4.999994 0 0.9999989
v -3.999998 0 -8
v -3.999992 0 -12
v -4.999998 0 -9.000001
v -4.999992 0 -12
v -7.999994 0 -8.000003
v -3.999998 0 -8
v -7.999993 0 -9.000003
v -4.999998 0 -9.000001
v -3.999992 1 -12
v -3.999998 1 -8
v -4.999992 1 -12
v -4.999998 1 -9.000001
v -3.999998 1 -8
v -7.999994 1 -8.000003
v -4.999998 1 -9.000001
v -7.999993 1 -9.000003
v 4 1 -7.999999
v -3.999998 1 -8
v 4.000008 1 -12
v -3.999992 1 -12
v -3.999998 1 -8
v 4 1 -7.999999
v -4.000006 1 -5.245209E-06
v 3.999995 1 -1.430511E-06
v -3.999998 1 -8
v -4.000006 1 -5.245209E-06
v -7.999994 1 -8.000003
v -7.999998 1 -3.099442E-06
v 4.000008 0 -12
v 4 0 -7.999999
v -3.999992 0 -12
v -3.999998 0 -8
v -7.999994 0 -8.000003
v -3.999998 0 -8
v -7.999998 0 -3.099442E-06
v -4.000006 0 -5.245209E-06
v -4.000006 0 -5.245209E-06
v -3.999998 0 -8
v 3.999995 0 -1.430511E-06
v 4 0 -7.999999
v 5.000008 0 -12
v 4.000008 0 -12
v 5.000008 1 -12
v 4.000008 1 -12
v -3.999992 0 -12
v -4.999992 0 -12
v -3.999992 1 -12
v -4.999992 1 -12
v 4.000008 0 -12
v -3.999992 0 -12
v 4.000008 1 -12
v -3.999992 1 -12
v -7.999993 0 -9.000003
v -7.999994 0 -8.000003
v -7.999993 1 -9.000003
v -7.999994 1 -8.000003
v -7.999998 0 -3.099442E-06
v -7.999998 0 0.9999969
v -7.999998 1 -3.099442E-06
v -7.999998 1 0.9999969
v -7.999994 0 -8.000003
v -7.999998 0 -3.099442E-06
v -7.999994 1 -8.000003
v -7.999998 1 -3.099442E-06

vn -4.635917E-07 0 1
vn 3.64256E-08 0 1
vn -4.635917E-07 0 1
vn 3.64256E-08 0 1
vn -1 0 -1.907348E-06
vn -1 0 -1.907348E-06
vn -1 0 -1.907348E-06
vn -1 0 -1.907348E-06
vn 1 0 1.907349E-06
vn 1 0 1.298057E-06
vn 1 0 1.907349E-06
vn 1 0 1.298057E-06
vn 1 0 1.298057E-06
vn 1 0 1.298057E-06
vn 1 0 6.88765E-07
vn 1 0 6.88765E-07
vn 6.357839E-07 0 -0.9999999
vn 6.357839E-07 0 -0.9999999
vn 6.357839E-07 0 -0.9999999
vn 6.357839E-07 0 -0.9999999
vn 3.64256E-08 0 1
vn 3.64256E-08 0 1
vn 5.364429E-07 0 1
vn 5.364429E-07 0 1
vn 0 -1 0
vn 0 -1 0
vn 0 -0.9999999 0
vn 0 -1 0
vn 0 -1 0
vn 0 -1 0
vn 0 -1 0
vn 0 -1 0
vn 0 1 0
vn 0 1 0
vn 0 1 0
vn 0 1 0
vn 0 1 0
vn 0 1 0
vn 0 1 0
vn 0 1 0
vn 0 -1 0
vn 0 -1 0
vn 0 -1 0
vn 0 -1 0
vn 0 1 0
vn 0 1 0
vn 0 1 0
vn 0 1 0
vn 0 1 0
vn 0 1 0
vn 0 1 0
vn 0 1 0
vn 0 -1 0
vn 0 -1 0
vn 0 -1 0
vn 0 -0.9999999 0
vn 0 -1 0
vn 0 -1 0
vn 0 -1 0
vn 0 -1 0
vn 0 -1 0
vn 0 -1 0
vn 0 -0.9999999 0
vn 0 -1 0
vn 0 1 0
vn 0 1 0
vn 0 0.9999999 0
vn 0 1 0
vn 0 1 0
vn 0 1 0
vn 0 1 0
vn 0 1 0
vn 0 1 0
vn 0 1 0
vn 0 1 0
vn 0 1 0
vn 0 1 0
vn 0 1 0
vn 0 1 0
vn 0 1 0
vn 0 1 0
vn 0 1 0
vn 0 1 0
vn 0 1 0
vn 0 -1 0
vn 0 -1 0
vn 0 -1 0
vn 0 -1 0
vn 0 -1 0
vn 0 -1 0
vn 0 -1 0
vn 0 -1 0
vn 0 -1 0
vn 0 -1 0
vn 0 -1 0
vn 0 -1 0
vn 0 0 -1
vn 0 0 -1
vn 0 0 -1
vn 0 0 -1
vn 9.536741E-07 0 -1
vn 9.536741E-07 0 -1
vn 9.536741E-07 0 -1
vn 9.536741E-07 0 -1
vn 4.768372E-07 0 -1
vn 4.768372E-07 0 -1
vn 4.768372E-07 0 -1
vn 4.768372E-07 0 -1
vn -1 0 -9.536743E-07
vn -1 0 -9.536743E-07
vn -1 0 -9.536743E-07
vn -1 0 -9.536743E-07
vn -1 0 0
vn -1 0 0
vn -1 0 0
vn -1 0 0
vn -1 0 -4.768372E-07
vn -1 0 -4.768372E-07
vn -1 0 -4.768372E-07
vn -1 0 -4.768372E-07

vt 4.999994 0
vt -4.000006 0
vt 4.999994 1
vt -4.000006 1
vt -17 0
vt -20 0
vt -17 1
vt -20 1
vt 12 0
vt 7.999998 0
vt 12 1
vt 7.999998 1
vt 8.000002 1
vt 8.000002 0
vt -0.9999952 1
vt -0.9999952 0
vt 5.000007 0
vt 5.000007 1
vt 8.000002 0
vt 8.000002 1
vt -12.00001 1
vt -12.00001 0
vt -16.00001 1
vt -16.00001 0
vt 3.999995 -1.430511E-06
vt -4.000006 -5.245209E-06
vt 4.999994 0.9999989
vt -4.000006 0.9999948
vt 4.000008 -20
vt 4 -16
vt 5.000008 -20
vt 5 -16
vt 7.999998 -8.821487E-06
vt 4.000006 -1.096725E-05
vt 7.999998 0.9999912
vt 4.000006 0.999989
vt 4.000006 -5.245209E-06
vt -3.999995 -1.430511E-06
vt 4.000006 0.9999948
vt -4.999994 0.9999989
vt -12.00001 -1.096725E-05
vt -16.00001 -8.821487E-06
vt -12.00001 0.999989
vt -16.00001 0.9999912
vt -3.999992 -16
vt -4 -20
vt -4.999992 -16
vt -5 -20
vt -3.999995 -1.430511E-06
vt -4 -7.999999
vt -4.999994 0.999999
vt -5 -7.999999
vt 3.999999 -7.999999
vt 3.999995 -1.430511E-06
vt 4.999999 -7.999999
vt 4.999994 0.999999
vt -3.999998 -16
vt -3.999992 -20
vt -4.999998 -17
vt -4.999993 -20
vt -16 -8.000011
vt -12.00001 -8.000009
vt -16 -9.000011
vt -13.00001 -9.00001
vt 3.999997 -20
vt 4.000003 -16
vt 4.999997 -20
vt 5.000003 -17
vt 3.999998 -8.000009
vt 7.999994 -8.000011
vt 4.999998 -9.00001
vt 7.999993 -9.000011
vt -3.999992 -16
vt 4.000006 -16
vt -4 -20
vt 4 -20
vt 3.999997 -8.000001
vt -4 -7.999998
vt 4.000006 -5.722046E-06
vt -3.999994 -9.536743E-07
vt 3.999997 -8.000009
vt 4.000007 -1.335144E-05
vt 7.999993 -8.000011
vt 7.999999 -1.144409E-05
vt 12.00001 -20
vt 12 -16
vt 4.000006 -20
vt 4 -16
vt -16 -9.000011
vt -12 -9.000009
vt -16 -1.000011
vt -12.00001 -1.000014
vt -16 -1.000016
vt -16 -9.00001
vt -8.000001 -1.000013
vt -7.999996 -9.000011
vt 4 -20
vt 5 -20
vt 4 -19
vt 5 -19
vt -4.999998 -20
vt -3.999998 -20
vt -4.999998 -19
vt -3.999998 -19
vt 4 -20
vt 12 -20
vt 4 -19
vt 12 -19
vt -16 -9.000011
vt -15 -9.000011
vt -16 -8.000011
vt -15 -8.000011
vt -16.00001 -1.096725E-05
vt -15.00001 -1.096725E-05
vt -16.00001 0.999989
vt -15.00001 0.999989
vt -16 -9.00001
vt -8.000002 -9.000012
vt -16 -8.00001
vt -8.000002 -8.000012

g Turn_0
usemtl Edge_C
f 3/3/3 4/4/4 2/2/2 1/1/1
f 7/7/7 8/8/8 6/6/6 5/5/5
f 11/11/11 12/12/12 10/10/10 9/9/9
f 15/15/15 16/16/16 14/14/14 13/13/13
f 19/19/19 20/20/20 18/18/18 17/17/17
f 23/23/23 24/24/24 22/22/22 21/21/21
f 27/27/27 28/28/28 26/26/26 25/25/25
f 31/31/31 32/32/32 30/30/30 29/29/29
f 35/35/35 36/36/36 34/34/34 33/33/33
f 39/39/39 40/40/40 38/38/38 37/37/37
f 43/43/43 44/44/44 42/42/42 41/41/41
f 47/47/47 48/48/48 46/46/46 45/45/45
f 51/51/51 52/52/52 50/50/50 49/49/49
f 55/55/55 56/56/56 54/54/54 53/53/53
f 59/59/59 60/60/60 58/58/58 57/57/57
f 63/63/63 64/64/64 62/62/62 61/61/61
f 67/67/67 68/68/68 66/66/66 65/65/65
f 71/71/71 72/72/72 70/70/70 69/69/69
f 100/100/100 99/99/99 97/97/97 98/98/98
f 104/104/104 103/103/103 101/101/101 102/102/102
f 112/112/112 111/111/111 109/109/109 110/110/110
f 116/116/116 115/115/115 113/113/113 114/114/114

g Turn_1
usemtl Tile01-A
f 75/75/75 76/76/76 74/74/74 73/73/73
f 79/79/79 80/80/80 78/78/78 77/77/77
f 83/83/83 84/84/84 82/82/82 81/81/81

g Turn_2
usemtl Fill01-D_Local
f 88/88/88 87/87/87 85/85/85 86/86/86
f 92/92/92 91/91/91 89/89/89 90/90/90
f 96/96/96 95/95/95 93/93/93 94/94/94
f 108/108/108 107/107/107 105/105/105 106/106/106
f 120/120/120 119/119/119 117/117/117 118/118/118

